<?xml version="1.0" encoding="utf-8"?>
<!-- Generator: Adobe Illustrator 16.0.0, SVG Export Plug-In . SVG Version: 6.00 Build 0)  -->
<!DOCTYPE svg PUBLIC "-//W3C//DTD SVG 1.1//EN" "http://www.w3.org/Graphics/SVG/1.1/DTD/svg11.dtd">
<svg version="1.1" id="Layer_1" xmlns="http://www.w3.org/2000/svg" xmlns:xlink="http://www.w3.org/1999/xlink" x="0px" y="0px"
	 width="295.56px" height="246.37px" viewBox="0 0 295.56 246.37" enable-background="new 0 0 295.56 246.37" xml:space="preserve">
<g>
	<ellipse opacity="0.5" fill="#CBD4DA" cx="144.583" cy="237.489" rx="108.916" ry="9.666"/>
	<g>
		<linearGradient id="SVGID_1_" gradientUnits="userSpaceOnUse" x1="0" y1="164.582" x2="60.832" y2="164.582">
			<stop  offset="0" style="stop-color:#6A5FAA"/>
			<stop  offset="1" style="stop-color:#69489D"/>
		</linearGradient>
		<path fill="url(#SVGID_1_)" d="M60.832,170.342v-11.52h-5.084c-0.66-2.909-1.809-5.626-3.354-8.074l3.602-3.601l-8.146-8.146
			l-3.601,3.601c-2.448-1.544-5.165-2.693-8.074-3.353v-5.084h-11.52v5.084c-2.909,0.659-5.626,1.809-8.074,3.353l-3.601-3.601
			l-8.146,8.146l3.601,3.601c-1.544,2.448-2.693,5.165-3.352,8.074H0v11.52h5.084c0.659,2.909,1.808,5.626,3.352,8.074l-3.601,3.601
			l8.146,8.146l3.601-3.601c2.448,1.544,5.165,2.693,8.074,3.353v5.084h11.52v-5.084c2.909-0.659,5.626-1.809,8.074-3.353
			l3.601,3.601l8.146-8.146l-3.602-3.601c1.545-2.448,2.693-5.165,3.354-8.074H60.832z M30.416,177.251
			c-6.997,0-12.669-5.672-12.669-12.669s5.672-12.669,12.669-12.669s12.669,5.672,12.669,12.669S37.413,177.251,30.416,177.251z"/>
		<g>
			<path fill="none" stroke="#69489D" stroke-miterlimit="10" d="M237.952,208.567c8.71-26.683,25.716-50.593,48.063-67.576"/>
			<path fill="#69489D" d="M243.006,170.426c-2.58-5.196,0.535-11.994,0.535-11.994s7.298,1.627,9.878,6.823
				s-0.535,11.994-0.535,11.994S245.586,175.622,243.006,170.426z"/>
			<path fill="#69489D" d="M265.604,167.713c5.802-0.062,10.565,5.702,10.565,5.702s-4.641,5.862-10.441,5.924
				c-5.802,0.062-10.565-5.701-10.565-5.701S259.804,167.774,265.604,167.713z"/>
			<path fill="#69489D" d="M274.337,154.944c4.946-0.053,9.01,4.861,9.01,4.861s-3.958,5-8.905,5.052
				c-4.946,0.053-9.01-4.861-9.01-4.861S269.39,154.996,274.337,154.944z"/>
			<path fill="#69489D" d="M257.824,153.854c-1.414-4.493,1.94-9.552,1.94-9.552s5.648,2.225,7.063,6.717
				c1.415,4.493-1.94,9.552-1.94,9.552S259.238,158.347,257.824,153.854z"/>
			<path fill="#69489D" d="M271.731,142.571c-1.19-3.78,1.634-8.038,1.634-8.038s4.753,1.872,5.943,5.653
				c1.19,3.78-1.633,8.038-1.633,8.038S272.922,146.353,271.731,142.571z"/>
			<path fill="#69489D" d="M286.542,145.006c3.837,0.993,5.952,5.644,5.952,5.644s-4.106,3.039-7.943,2.046
				c-3.838-0.994-5.952-5.645-5.952-5.645S282.705,144.012,286.542,145.006z"/>
			<path fill="#69489D" d="M287.489,134.747c3.104-2.445,8.07-1.316,8.07-1.316s-0.066,5.093-3.171,7.537
				c-3.104,2.445-8.07,1.317-8.07,1.317S284.385,137.192,287.489,134.747z"/>
		</g>
		<g>
			<path fill="none" stroke="#EF5897" stroke-miterlimit="10" d="M82.099,83.289C75.141,54.94,59.363,28.822,37.508,9.472"/>
			<path fill="#EF5897" d="M79.822,43.341c3.08-5.188,0.378-12.479,0.378-12.479s-7.695,1.12-10.774,6.308
				c-3.08,5.188-0.378,12.479-0.378,12.479S76.743,48.529,79.822,43.341z"/>
			<path fill="#EF5897" d="M56.597,38.771c-6.011-0.515-11.4,5.091-11.4,5.091s4.357,6.441,10.369,6.956
				c6.011,0.515,11.4-5.091,11.4-5.091S62.608,39.286,56.597,38.771z"/>
			<path fill="#EF5897" d="M48.534,24.85c-5.126-0.439-9.721,4.342-9.721,4.342s3.715,5.492,8.841,5.931
				c5.127,0.439,9.722-4.341,9.722-4.341S53.66,25.289,48.534,24.85z"/>
			<path fill="#EF5897" d="M65.743,25.003c1.816-4.549-1.27-10.056-1.27-10.056s-6.03,1.868-7.847,6.417
				c-1.816,4.549,1.27,10.056,1.27,10.056S63.928,29.553,65.743,25.003z"/>
			<path fill="#EF5897" d="M52.197,12.222c1.528-3.829-1.068-8.463-1.068-8.463s-5.075,1.572-6.604,5.4s1.069,8.463,1.069,8.463
				S50.669,16.05,52.197,12.222z"/>
			<path fill="#EF5897" d="M36.649,13.594c-4.057,0.732-6.611,5.39-6.611,5.39s4.022,3.471,8.079,2.739
				c4.057-0.732,6.611-5.39,6.611-5.39S40.706,12.862,36.649,13.594z"/>
			<path fill="#EF5897" d="M36.465,2.882c-3.029-2.777-8.268-1.993-8.268-1.993s-0.327,5.287,2.702,8.064
				c3.029,2.777,8.268,1.993,8.268,1.993S39.494,5.659,36.465,2.882z"/>
		</g>
		<g>
			<path fill="#CBD4DA" d="M234.005,64.597H55.328c-10.623,0-19.234,8.611-19.234,19.234v109.718
				c0,10.623,8.611,19.234,19.234,19.234h178.677c10.622,0,19.233-8.611,19.233-19.234V83.831
				C253.238,73.208,244.627,64.597,234.005,64.597z"/>
			<path fill="#6A5FAA" d="M55.328,202.513c-4.943,0-8.964-4.021-8.964-8.964V83.831c0-4.942,4.021-8.963,8.964-8.963h167.428
				c4.943,0,8.964,4.021,8.964,8.963v109.718c0,4.943-4.021,8.964-8.964,8.964H55.328z"/>
			<circle fill="#FFFFFF" cx="241.99" cy="140.646" r="5.869"/>
		</g>
		<g>
			<path fill="#EF5897" d="M262.674,205.414l2.252,5.179c0.08,0.183,0.226,0.328,0.407,0.407l5.179,2.252
				c0.63,0.274,0.63,1.168,0,1.441l-5.179,2.253c-0.182,0.079-0.327,0.225-0.407,0.407l-2.252,5.179
				c-0.274,0.629-1.167,0.629-1.441,0l-2.252-5.179c-0.08-0.183-0.225-0.328-0.407-0.407l-5.179-2.253
				c-0.63-0.273-0.63-1.167,0-1.441l5.179-2.252c0.183-0.079,0.327-0.225,0.407-0.407l2.252-5.179
				C261.507,204.784,262.399,204.784,262.674,205.414z"/>
			<path fill="#EF5897" d="M242.167,191.044L244,195.26c0.064,0.148,0.183,0.267,0.331,0.331l4.216,1.833
				c0.513,0.224,0.513,0.95,0,1.174l-4.216,1.833c-0.148,0.064-0.267,0.183-0.331,0.331l-1.833,4.216
				c-0.224,0.513-0.95,0.513-1.173,0l-1.834-4.216c-0.064-0.148-0.183-0.267-0.331-0.331l-4.215-1.833
				c-0.513-0.224-0.513-0.95,0-1.174l4.215-1.833c0.148-0.064,0.267-0.183,0.331-0.331l1.834-4.216
				C241.217,190.531,241.943,190.531,242.167,191.044z"/>
			<path fill="#EF5897" d="M265.847,189.415l1.075,2.472c0.037,0.087,0.106,0.156,0.194,0.194l2.472,1.075
				c0.3,0.13,0.3,0.557,0,0.688l-2.472,1.075c-0.088,0.037-0.157,0.106-0.194,0.194l-1.075,2.472c-0.131,0.3-0.558,0.3-0.688,0
				l-1.075-2.472c-0.038-0.088-0.107-0.157-0.194-0.194l-2.472-1.075c-0.301-0.131-0.301-0.558,0-0.688l2.472-1.075
				c0.087-0.038,0.156-0.107,0.194-0.194l1.075-2.472C265.289,189.114,265.716,189.114,265.847,189.415z"/>
		</g>
		<g>
			<path fill="#FFFFFF" d="M24.723,34.75l2.253,5.179c0.079,0.183,0.225,0.328,0.407,0.407l5.179,2.252
				c0.63,0.274,0.63,1.167,0,1.441l-5.179,2.252c-0.183,0.079-0.328,0.225-0.407,0.407l-2.253,5.179
				c-0.273,0.629-1.167,0.629-1.44,0l-2.252-5.179c-0.08-0.182-0.225-0.328-0.407-0.407l-5.179-2.252
				c-0.63-0.274-0.63-1.167,0-1.441l5.179-2.252c0.182-0.079,0.328-0.225,0.407-0.407l2.252-5.179
				C23.556,34.12,24.449,34.12,24.723,34.75z"/>
			<path fill="#FFFFFF" d="M18.458,63.588l1.833,4.215c0.064,0.148,0.183,0.267,0.332,0.331l4.215,1.833
				c0.513,0.223,0.513,0.95,0,1.173l-4.215,1.833c-0.148,0.064-0.267,0.183-0.332,0.332l-1.833,4.215
				c-0.223,0.513-0.95,0.513-1.173,0l-1.833-4.215c-0.064-0.148-0.183-0.267-0.331-0.332l-4.215-1.833
				c-0.513-0.223-0.513-0.95,0-1.173l4.215-1.833c0.148-0.064,0.267-0.183,0.331-0.331l1.833-4.215
				C17.508,63.076,18.235,63.076,18.458,63.588z"/>
			<path fill="#FFFFFF" d="M36.197,62.437l1.075,2.472c0.038,0.087,0.107,0.156,0.194,0.194l2.472,1.075
				c0.301,0.131,0.301,0.557,0,0.688l-2.472,1.075c-0.087,0.038-0.156,0.107-0.194,0.194l-1.075,2.472
				c-0.131,0.301-0.557,0.301-0.688,0l-1.075-2.472c-0.037-0.087-0.107-0.156-0.194-0.194l-2.471-1.075
				c-0.301-0.131-0.301-0.557,0-0.688l2.471-1.075c0.087-0.038,0.157-0.107,0.194-0.194l1.075-2.472
				C35.641,62.136,36.066,62.136,36.197,62.437z"/>
		</g>
		<g>
			<linearGradient id="SVGID_2_" gradientUnits="userSpaceOnUse" x1="138.354" y1="53.1797" x2="195.6094" y2="53.1797">
				<stop  offset="0" style="stop-color:#6A5FAA"/>
				<stop  offset="1" style="stop-color:#69489D"/>
			</linearGradient>
			<path fill="url(#SVGID_2_)" d="M195.609,52.016c0-16.181-13.424-29.227-29.743-28.607c-14.838,0.563-26.928,12.654-27.491,27.491
				c-0.62,16.319,12.426,29.743,28.606,29.743c1.548,0,3.066-0.125,4.548-0.363c0.695-0.112,1.409-0.029,2.069,0.217l6.635,2.475
				l1.084-4.741c0.235-1.031,0.856-1.929,1.731-2.522C190.629,70.559,195.609,61.87,195.609,52.016z"/>
		</g>
		<g>
			<g>
				<g>
					<g opacity="0.1">
						<circle fill="#010101" cx="245.622" cy="73.01" r="22.857"/>
					</g>
					<g>
						<linearGradient id="SVGID_3_" gradientUnits="userSpaceOnUse" x1="221.9014" y1="48.2896" x2="271.731" y2="98.1192">
							<stop  offset="0" style="stop-color:#EF5897"/>
							<stop  offset="1" style="stop-color:#964A9C"/>
						</linearGradient>
						<circle fill="url(#SVGID_3_)" cx="245.622" cy="72.01" r="22.857"/>
					</g>
				</g>
			</g>
			<g>
				<path fill="#FFFFFF" d="M253.333,65.667c-0.456-1.101-0.037-2.82-0.867-3.65s-2.549-0.411-3.65-0.868
					c-1.063-0.441-1.972-1.968-3.194-1.968c-1.222,0-2.132,1.527-3.194,1.968c-1.101,0.457-2.819,0.037-3.649,0.867
					c-0.83,0.831-0.411,2.549-0.868,3.65c-0.44,1.063-1.968,1.973-1.968,3.194c0,1.222,1.527,2.132,1.968,3.194
					c0.457,1.102,0.038,2.82,0.867,3.65c0.83,0.83,2.55,0.411,3.65,0.868c1.063,0.44,1.973,1.967,3.194,1.967
					c1.223,0,2.132-1.527,3.194-1.967c1.102-0.457,2.82-0.038,3.65-0.868s0.411-2.549,0.867-3.65
					c0.441-1.063,1.968-1.972,1.968-3.194C255.301,67.639,253.774,66.729,253.333,65.667z M245.621,74.478
					c-3.102,0-5.617-2.515-5.617-5.617c0-3.102,2.516-5.617,5.617-5.617c3.103,0,5.617,2.515,5.617,5.617
					C251.238,71.963,248.724,74.478,245.621,74.478z"/>
				<path fill="#FFFFFF" d="M245.621,80.165c-1.146,0-2.058-1.142-3.015-1.861v7.757l3.015-2.32l3.015,2.32v-7.757
					C247.679,79.022,246.768,80.165,245.621,80.165z"/>
			</g>
		</g>
		<g>
			<path fill="#FFFFFF" d="M173.545,48.983c0-4.018-3.609-7.192-7.763-6.458c-2.662,0.471-4.832,2.677-5.272,5.346
				c-0.371,2.252,0.411,4.317,1.843,5.735c1.069,1.059,1.696,2.481,1.696,3.986v0.497c0,0.791,0.642,1.433,1.433,1.433h3.001
				c0.791,0,1.432-0.642,1.432-1.433v-0.495c0-1.447,0.522-2.879,1.576-3.871C172.753,52.533,173.545,50.856,173.545,48.983z"/>
			<path fill="#FFFFFF" d="M169.348,60.407h-4.731c-0.391,0-0.707,0.316-0.707,0.707s0.316,0.707,0.707,0.707h4.731
				c0.391,0,0.707-0.316,0.707-0.707S169.738,60.407,169.348,60.407z"/>
			<path fill="#FFFFFF" d="M169.048,62.706h-4.132c-0.341,0-0.618,0.277-0.618,0.618s0.277,0.617,0.618,0.617h4.132
				c0.341,0,0.617-0.276,0.617-0.617S169.389,62.706,169.048,62.706z"/>
		</g>
		<g>
			<g>
				<rect x="61.414" y="87.076" fill="#DEE9EB" width="116.586" height="75.396"/>
				<rect x="61.414" y="87.076" fill="#CBD4DA" width="116.586" height="4.64"/>
				<g>
					<rect x="74.958" y="94.687" fill="#6A5FAA" width="89.498" height="52.534"/>
					<g>
						<rect x="112.806" y="115.962" fill="#623494" width="13.803" height="9.984"/>
						<polygon fill="#FFFFFF" points="122.529,120.954 116.886,117.695 116.886,124.212 						"/>
					</g>
					<g>
						<rect x="74.958" y="152.199" fill="#CBD4DA" width="34.858" height="2.758"/>
						<rect x="74.958" y="156.343" fill="#CBD4DA" width="52.305" height="1.612"/>
					</g>
					<circle fill="#CBD4DA" cx="152.846" cy="153.578" r="1.57"/>
					<circle fill="#CBD4DA" cx="157.322" cy="153.578" r="1.571"/>
					<circle fill="#CBD4DA" cx="161.798" cy="153.578" r="1.57"/>
				</g>
				<g>
					<circle fill="#623494" cx="64.705" cy="89.396" r="1.415"/>
					<circle fill="#964A9C" cx="68.42" cy="89.396" r="1.415"/>
					<circle fill="#EF5897" cx="72.135" cy="89.396" r="1.415"/>
				</g>
			</g>
			<g>
				<path fill="#623494" d="M127.14,169.845H92.762c-1.145,0-2.072,0.928-2.072,2.072l0,0c0,1.145,0.928,2.072,2.072,2.072h34.378
					c1.145,0,2.072-0.928,2.072-2.072l0,0C129.212,170.772,128.284,169.845,127.14,169.845z"/>
				<path fill="#623494" d="M120.494,177.644H92.762c-1.145,0-2.072,0.928-2.072,2.072l0,0c0,1.145,0.928,2.072,2.072,2.072h27.732
					c1.145,0,2.072-0.928,2.072-2.072l0,0C122.566,178.571,121.639,177.644,120.494,177.644z"/>
				<path fill="#623494" d="M111.512,186.16h-18.75c-1.145,0-2.072,0.928-2.072,2.071l0,0c0,1.145,0.928,2.072,2.072,2.072h18.75
					c1.145,0,2.072-0.928,2.072-2.072l0,0C113.584,187.088,112.656,186.16,111.512,186.16z"/>
			</g>
			<g>
				<g>
					<g opacity="0.1">
						<circle fill="#010101" cx="73.91" cy="179.73" r="10.757"/>
					</g>
					<g>
						<circle fill="#DEE9EB" cx="73.91" cy="178.73" r="10.757"/>
					</g>
				</g>
			</g>
		</g>
		<g>
			<path fill="#FFFFFF" d="M161.863,116.414c0,0-0.232-11.396-2.209-11.744s-0.813,6.744-0.813,6.744s-2.675-0.232-3.488,1.046
				c-0.814,1.279-1.163,6.744,1.162,7.442C158.841,120.6,161.863,116.414,161.863,116.414z"/>
			<linearGradient id="SVGID_4_" gradientUnits="userSpaceOnUse" x1="194.1885" y1="195.8594" x2="216.3975" y2="195.8594">
				<stop  offset="0" style="stop-color:#69489D"/>
				<stop  offset="1" style="stop-color:#623494"/>
			</linearGradient>
			<path fill="url(#SVGID_4_)" d="M213.49,159.669c0.931,0.697-1.396,25.813-2.325,33.72c-0.931,7.907,5.232,38.662,5.232,38.662
				l-6.104-0.291c0,0-10.988-32.558-11.221-36.743c-0.232-4.187-4.884-31.627-4.884-31.627L213.49,159.669z"/>
			<linearGradient id="SVGID_5_" gradientUnits="userSpaceOnUse" x1="180.0029" y1="193.7373" x2="215.583" y2="193.7373">
				<stop  offset="0" style="stop-color:#69489D"/>
				<stop  offset="1" style="stop-color:#623494"/>
			</linearGradient>
			<path fill="url(#SVGID_5_)" d="M215.583,159.669c0,0-3.953,12.093-9.999,17.674c-6.047,5.581-13.488,17.906-13.488,17.906
				l2.093,36.743l-6.821-0.077c0,0-7.364-36.898-7.364-40.154s10-36.278,10-36.278L215.583,159.669z"/>
			<path fill="#FFFFFF" d="M190.816,102.654c0,0-2.14,10.98,6.09,12.01c8.229,1.028,8.458-15.545,8.458-15.545
				s-9.829-2.857-10.516-1.943c-0.686,0.915-0.686,0.915-0.686,0.915L190.816,102.654z"/>
			<path fill="#AB67AA" d="M195.584,113.158l-0.641,0.045c-3.734,0.268-6.607,3.733-8.895,6.699l-11.859,13.022l-12.326-16.511
				l-5.349,3.488c0,0,13.721,25.813,19.069,24.65s11.86-8.604,11.86-8.604s-1.396,22.867-2.093,25.891
				c0,0,21.627,9.612,30.464,0.543l-2.465-37.367c-0.619-4.504-3.887-8.194-8.282-9.354L195.584,113.158z"/>
			<path fill="#EF5897" d="M194.188,231.992v5.814h-14.006c-1.075,0-1.455-1.423-0.523-1.96c2.415-1.393,5.622-3.149,7.708-3.932
				C191.088,230.52,194.188,231.992,194.188,231.992z"/>
			<path fill="#EF5897" d="M216.358,231.992v5.814h-13.427c-1.235,0-1.67-1.637-0.598-2.25c2.343-1.338,5.26-2.913,7.203-3.642
				C213.258,230.52,216.358,231.992,216.358,231.992z"/>
			<path fill="#EF5897" d="M195.951,125.11c0,0-6.337-5.39-3.184-10.663c3.154-5.272,5.549-8.163,4.959-11.318
				c0,0-0.235-4.011-3.062-1.541c0,0-1.19,1.963-3.816,1.207c0,0-2.319-11.419,10.084-13.9c12.911-2.583,16.526,6.977,15.513,13.073
				s-5.513,6.277,0.064,13.989C222.087,123.668,210.949,136.954,195.951,125.11z"/>
		</g>
	</g>
</g>
</svg>
